<svg version="1.1" xmlns="http://www.w3.org/2000/svg" xmlns:xlink="http://www.w3.org/1999/xlink" preserveAspectRatio="xMidYMid meet" viewBox="0 0 286 186" id="el_rk0ur-SI37"><style>@-webkit-keyframes el_SJgQOrZSIh7_B1bYcII2Q_Animation{0%{-webkit-transform: translate(204.24500274658203px, 102.77000045776367px) rotate(0deg) translate(-204.24500274658203px, -102.77000045776367px);transform: translate(204.24500274658203px, 102.77000045776367px) rotate(0deg) translate(-204.24500274658203px, -102.77000045776367px);}100%{-webkit-transform: translate(204.24500274658203px, 102.77000045776367px) rotate(720deg) translate(-204.24500274658203px, -102.77000045776367px);transform: translate(204.24500274658203px, 102.77000045776367px) rotate(720deg) translate(-204.24500274658203px, -102.77000045776367px);}}@keyframes el_SJgQOrZSIh7_B1bYcII2Q_Animation{0%{-webkit-transform: translate(204.24500274658203px, 102.77000045776367px) rotate(0deg) translate(-204.24500274658203px, -102.77000045776367px);transform: translate(204.24500274658203px, 102.77000045776367px) rotate(0deg) translate(-204.24500274658203px, -102.77000045776367px);}100%{-webkit-transform: translate(204.24500274658203px, 102.77000045776367px) rotate(720deg) translate(-204.24500274658203px, -102.77000045776367px);transform: translate(204.24500274658203px, 102.77000045776367px) rotate(720deg) translate(-204.24500274658203px, -102.77000045776367px);}}@-webkit-keyframes el_H1_muHbBUnX_S1D45LInX_Animation{0%{-webkit-transform: translate(83.21500015258789px, 102.77000045776367px) rotate(0deg) translate(-83.21500015258789px, -102.77000045776367px);transform: translate(83.21500015258789px, 102.77000045776367px) rotate(0deg) translate(-83.21500015258789px, -102.77000045776367px);}100%{-webkit-transform: translate(83.21500015258789px, 102.77000045776367px) rotate(720deg) translate(-83.21500015258789px, -102.77000045776367px);transform: translate(83.21500015258789px, 102.77000045776367px) rotate(720deg) translate(-83.21500015258789px, -102.77000045776367px);}}@keyframes el_H1_muHbBUnX_S1D45LInX_Animation{0%{-webkit-transform: translate(83.21500015258789px, 102.77000045776367px) rotate(0deg) translate(-83.21500015258789px, -102.77000045776367px);transform: translate(83.21500015258789px, 102.77000045776367px) rotate(0deg) translate(-83.21500015258789px, -102.77000045776367px);}100%{-webkit-transform: translate(83.21500015258789px, 102.77000045776367px) rotate(720deg) translate(-83.21500015258789px, -102.77000045776367px);transform: translate(83.21500015258789px, 102.77000045776367px) rotate(720deg) translate(-83.21500015258789px, -102.77000045776367px);}}#el_rk0ur-SI37 *{-webkit-animation-duration: 8s;animation-duration: 8s;-webkit-animation-iteration-count: infinite;animation-iteration-count: infinite;-webkit-animation-timing-function: cubic-bezier(0, 0, 1, 1);animation-timing-function: cubic-bezier(0, 0, 1, 1);}#el_HyWgdH-BUhm{opacity: 1;fill: #383135;fill-opacity: 1;}#el_B1Qx_BZSL2m{opacity: 1;fill-opacity: 0;stroke: #000000;stroke-width: 1;stroke-opacity: 0;}#el_r1rg_SWB83m{opacity: 1;fill: #f5e9dc;fill-opacity: 1;}#el_HyPe_B-HU2X{opacity: 1;fill-opacity: 0;stroke: #000000;stroke-width: 1;stroke-opacity: 0;}#el_rJKgdB-BUhX{opacity: 1;fill: #f5e9dc;fill-opacity: 1;}#el_ryix_HWHUhm{opacity: 1;fill-opacity: 0;stroke: #000000;stroke-width: 1;stroke-opacity: 0;}#el_rkal_S-H8hQ{opacity: 1;fill: #383135;fill-opacity: 1;}#el_BJyWOH-S82X{opacity: 1;fill-opacity: 0;stroke: #000000;stroke-width: 1;stroke-opacity: 0;}#el_BJ-W_r-BU2m{opacity: 1;fill: #383135;fill-opacity: 1;}#el_BJQ-Or-H83X{opacity: 1;fill-opacity: 0;stroke: #000000;stroke-width: 1;stroke-opacity: 0;}#el_ByH-drWBLnm{opacity: 1;fill: #383135;fill-opacity: 1;}#el_SkPW_SZrL2m{opacity: 1;fill-opacity: 0;stroke: #000000;stroke-width: 1;stroke-opacity: 0;}#el_SkKW_H-rI37{opacity: 1;fill: #383135;fill-opacity: 1;}#el_r1sZOBbH83X{opacity: 1;fill-opacity: 0;stroke: #000000;stroke-width: 1;stroke-opacity: 0;}#el_ry6-uBWr837{opacity: 1;fill: #383135;fill-opacity: 1;}#el_BJyzdSWHLnX{opacity: 1;fill-opacity: 0;stroke: #000000;stroke-width: 1;stroke-opacity: 0;}#el_B1ZMOS-BL3Q{opacity: 1;fill: #f5e9dc;fill-opacity: 1;}#el_B1Qz_SbrL3m{opacity: 1;fill-opacity: 0;stroke: #000000;stroke-width: 1;stroke-opacity: 0;}#el_ryrzdS-rLhQ{opacity: 1;fill: #383135;fill-opacity: 1;}#el_H1DMdSbS8n7{opacity: 1;fill-opacity: 0;stroke: #000000;stroke-width: 1;stroke-opacity: 0;}#el_rkYfOHZSIn7{opacity: 1;fill: #383135;fill-opacity: 1;}#el_HJjf_SbB83Q{opacity: 1;fill-opacity: 0;stroke: #000000;stroke-width: 1;stroke-opacity: 0;}#el_rkpzOBZBL2m{opacity: 1;fill: #f5e9dc;fill-opacity: 1;}#el_rJJm_rbHLhQ{opacity: 1;fill-opacity: 0;stroke: #000000;stroke-width: 1;stroke-opacity: 0;}#el_S1Z7OHZS827{opacity: 1;fill: #383135;fill-opacity: 1;}#el_rk7XdB-BUhm{opacity: 1;fill-opacity: 0;stroke: #000000;stroke-width: 1;stroke-opacity: 0;}#el_SJrmdHZS8hm{opacity: 1;fill: #f5e9dc;fill-opacity: 1;}#el_rJwXdSbB8hQ{opacity: 1;fill-opacity: 0;stroke: #000000;stroke-width: 1;stroke-opacity: 0;}#el_ryY7dBbSLn7{opacity: 1;fill: #383135;fill-opacity: 1;}#el_B1im_HbHL3m{opacity: 1;fill-opacity: 0;stroke: #000000;stroke-width: 1;stroke-opacity: 0;}#el_HkJluHWr82m_rkt0FUUnQ{-webkit-transform: translate(143.03999996185303px, 94.27500104904175px) scale(1, 1) translate(-143.03999996185303px, -94.27500104904175px);transform: translate(143.03999996185303px, 94.27500104904175px) scale(1, 1) translate(-143.03999996185303px, -94.27500104904175px);}#el_H1_muHbBUnX_S1D45LInX{-webkit-animation-name: el_H1_muHbBUnX_S1D45LInX_Animation;animation-name: el_H1_muHbBUnX_S1D45LInX_Animation;-webkit-transform: translate(83.21500015258789px, 102.77000045776367px) rotate(0deg) translate(-83.21500015258789px, -102.77000045776367px);transform: translate(83.21500015258789px, 102.77000045776367px) rotate(0deg) translate(-83.21500015258789px, -102.77000045776367px);}#el_Hk2z_rZHLnm_Syk89IIh7{-webkit-transform: translate(204.4199981689453px, 102.71000289916992px) rotate(0deg) translate(-204.4199981689453px, -102.71000289916992px);transform: translate(204.4199981689453px, 102.71000289916992px) rotate(0deg) translate(-204.4199981689453px, -102.71000289916992px);}#el_SJgQOrZSIh7_B1bYcII2Q{-webkit-animation-name: el_SJgQOrZSIh7_B1bYcII2Q_Animation;animation-name: el_SJgQOrZSIh7_B1bYcII2Q_Animation;-webkit-transform: translate(204.24500274658203px, 102.77000045776367px) rotate(0deg) translate(-204.24500274658203px, -102.77000045776367px);transform: translate(204.24500274658203px, 102.77000045776367px) rotate(0deg) translate(-204.24500274658203px, -102.77000045776367px);}</style><defs><path d="M272.3 5.23C246.45 5.23 39.64 5.23 13.79 5.23C7.85 5.23 3.04 10.04 3.04 15.97C3.04 31.71 3.04 157.63 3.04 173.37C3.04 179.31 7.85 184.12 13.79 184.12C39.64 184.12 246.45 184.12 272.3 184.12C278.23 184.12 283.04 179.31 283.04 173.37C283.04 162.88 283.04 110.41 283.04 15.97C279.84 8.81 276.26 5.23 272.3 5.23Z" id="e2tcFOncuR"/><path d="M21.97 157.15L32.33 168.3L255.56 168.3L264.89 158.71L264.89 52.41L21.97 51.89L21.97 157.15Z" id="aFVRPy2Gg"/><path d="M58.53 46.71C70.09 46.71 127.9 46.71 231.97 46.71L243.63 4.69L46.6 4.43C52.96 26.98 56.93 41.07 58.53 46.71Z" id="ft7LAle8R"/><path d="M76.41 24.15C72.69 24.15 69.67 21.13 69.67 17.41C69.67 13.69 72.69 10.67 76.41 10.67C80.14 10.67 83.16 13.69 83.16 17.41C83.16 21.13 80.14 24.15 76.41 24.15Z" id="c1kGg57AK8"/><path d="M210.97 24.15C207.25 24.15 204.23 21.13 204.23 17.41C204.23 13.69 207.25 10.67 210.97 10.67C214.69 10.67 217.71 13.69 217.71 17.41C217.71 21.13 214.69 24.15 210.97 24.15Z" id="b2Z9e28A8"/><path d="M107.64 16.12C107.17 16.12 103.47 16.12 103.01 16.12C101.64 16.12 100.53 17.22 100.53 18.6C100.53 19.09 100.53 23 100.53 23.49C100.53 24.86 101.64 25.97 103.01 25.97C103.47 25.97 107.17 25.97 107.64 25.97C109.01 25.97 110.12 24.86 110.12 23.49C110.12 23.16 110.12 21.53 110.12 18.6C109.38 16.94 108.55 16.12 107.64 16.12Z" id="g73eqSb1DL"/><path d="M186.86 16.12C186.4 16.12 182.69 16.12 182.22 16.12C180.86 16.12 179.75 17.22 179.75 18.6C179.75 19.09 179.75 23 179.75 23.49C179.75 24.86 180.86 25.97 182.22 25.97C182.69 25.97 186.4 25.97 186.86 25.97C188.23 25.97 189.33 24.86 189.33 23.49C189.33 23.16 189.33 21.53 189.33 18.6C188.6 16.94 187.77 16.12 186.86 16.12Z" id="a2f9EL6EQY"/><path d="M59.82 100.64C59.82 78.08 85.49 80.15 87.82 80.15C90.15 80.15 205.27 80.15 205.27 80.15C205.27 80.15 226.78 80.41 226.78 101.15C226.78 121.89 210.19 125.27 203.97 125.27C197.75 125.27 81.6 124.75 81.6 124.75C77.24 119.92 59.82 123.19 59.82 100.64Z" id="drVlHhmg2"/><path d="M174.15 98.56C174.15 98.56 174.15 98.56 174.15 98.56C174.15 110.69 174.15 117.44 174.15 118.78C174.15 118.78 174.15 118.78 174.15 118.78C136.98 118.78 116.32 118.78 112.19 118.78C112.19 118.78 112.19 118.78 112.19 118.78C112.19 106.65 112.19 99.91 112.19 98.56C112.19 98.56 112.19 98.56 112.19 98.56C149.37 98.56 170.02 98.56 174.15 98.56Z" id="l2fKZj5QD"/><path d="M129.59 100.89C128.61 100.89 123.7 100.89 114.85 100.89L114.85 116.2L130.27 116.1C131.11 109.97 130.88 104.89 129.59 100.89Z" id="bHcnBkDt8"/><path d="M171.76 116.65C169.5 116.65 168.24 116.65 167.99 116.65C167.64 113.61 166.84 105.16 167.93 100.42C168.19 100.42 169.47 100.42 171.76 100.42L171.76 116.65Z" id="a2cqxBsFUt"/><path d="M204.42 119.3C195.26 119.3 187.83 111.87 187.83 102.71C187.83 93.54 195.26 86.12 204.42 86.12C213.59 86.12 221.01 93.55 221.01 102.71C221.01 111.87 213.59 119.3 204.42 119.3Z" id="aqHZG6GWz"/><path d="M207.85 119.57L206.73 116.61L209.25 115.66L210.37 118.63L207.85 119.57ZM193.53 116.01L191.5 114.28L193.61 111.94L195.64 113.67L193.53 116.01ZM220.39 108.89L217.3 108.31L217.79 105.66L220.89 106.24L220.39 108.89ZM190.66 100.26L187.6 99.5L188.18 96.89L191.24 97.65L190.66 100.26ZM215.32 94.25L213.38 92.38L215.6 90.11L217.53 91.99L215.32 94.25ZM199.52 89.76L198.73 86.7L201.3 85.97L202.09 89.02L199.52 89.76Z" id="hj5NhAoIS"/><path d="M83.4 119.3C74.24 119.3 66.81 111.87 66.81 102.71C66.81 93.54 74.24 86.12 83.4 86.12C92.56 86.12 99.99 93.55 99.99 102.71C99.99 111.87 92.56 119.3 83.4 119.3Z" id="b7TPTM8ifZ"/><path d="M86.82 119.57L85.71 116.61L88.23 115.66L89.35 118.63L86.82 119.57ZM72.51 116.01L70.47 114.28L72.58 111.94L74.61 113.67L72.51 116.01ZM99.37 108.89L96.28 108.31L96.77 105.66L99.86 106.24L99.37 108.89ZM69.64 100.26L66.57 99.5L67.15 96.89L70.22 97.65L69.64 100.26ZM94.3 94.25L92.36 92.38L94.57 90.11L96.5 91.99L94.3 94.25ZM78.5 89.76L77.71 86.7L80.28 85.97L81.06 89.02L78.5 89.76Z" id="b2sdEaGiLx"/></defs><g id="el_HkJluHWr82m"><g id="el_BklgOBWBIhQ"><use xlink:href="#e2tcFOncuR" id="el_HyWgdH-BUhm"/><g id="el_SJfguBZBU2Q"><use xlink:href="#e2tcFOncuR" id="el_B1Qx_BZSL2m"/></g></g><g id="el_BkNxdBbrL3m"><use xlink:href="#aFVRPy2Gg" id="el_r1rg_SWB83m"/><g id="el_BkUguHZBI27"><use xlink:href="#aFVRPy2Gg" id="el_HyPe_B-HU2X"/></g></g><g id="el_r1uedSWS8h7"><use xlink:href="#ft7LAle8R" id="el_rJKgdB-BUhX"/><g id="el_BycgOS-S8nX"><use xlink:href="#ft7LAle8R" id="el_ryix_HWHUhm"/></g></g><g id="el_H13ldBbHU3X"><use xlink:href="#c1kGg57AK8" id="el_rkal_S-H8hQ"/><g id="el_Sk0xuHZrUh7"><use xlink:href="#c1kGg57AK8" id="el_BJyWOH-S82X"/></g></g><g id="el_Skg-OSZB837"><use xlink:href="#b2Z9e28A8" id="el_BJ-W_r-BU2m"/><g id="el_BJG-OBZBI2m"><use xlink:href="#b2Z9e28A8" id="el_BJQ-Or-H83X"/></g></g><g id="el_S1NWdHZSLn7"><use xlink:href="#g73eqSb1DL" id="el_ByH-drWBLnm"/><g id="el_S1UW_B-B8hm"><use xlink:href="#g73eqSb1DL" id="el_SkPW_SZrL2m"/></g></g><g id="el_ryObdBbSI37"><use xlink:href="#a2f9EL6EQY" id="el_SkKW_H-rI37"/><g id="el_H1qb_rWBUhX"><use xlink:href="#a2f9EL6EQY" id="el_r1sZOBbH83X"/></g></g><g id="el_Bk2bdrbrUhm"><use xlink:href="#drVlHhmg2" id="el_ry6-uBWr837"/><g id="el_SkCZ_SbH82m"><use xlink:href="#drVlHhmg2" id="el_BJyzdSWHLnX"/></g></g><g id="el_HyxGuH-r8nQ"><use xlink:href="#l2fKZj5QD" id="el_B1ZMOS-BL3Q"/><g id="el_H1zGOrWrU2m"><use xlink:href="#l2fKZj5QD" id="el_B1Qz_SbrL3m"/></g></g><g id="el_SyEMOSWS837"><use xlink:href="#bHcnBkDt8" id="el_ryrzdS-rLhQ"/><g id="el_HJ8zuH-rU37"><use xlink:href="#bHcnBkDt8" id="el_H1DMdSbS8n7"/></g></g><g id="el_HyOzOBbBI2Q"><use xlink:href="#a2cqxBsFUt" id="el_rkYfOHZSIn7"/><g id="el_Hkqz_SbSLhm"><use xlink:href="#a2cqxBsFUt" id="el_HJjf_SbB83Q"/></g></g><g id="el_Hk2z_rZHLnm"><use xlink:href="#aqHZG6GWz" id="el_rkpzOBZBL2m"/><g id="el_HyAzdr-SU37"><use xlink:href="#aqHZG6GWz" id="el_rJJm_rbHLhQ"/></g></g><g id="el_SJgQOrZSIh7_B1bYcII2Q" data-animator-group="true" data-animator-type="1"><g id="el_SJgQOrZSIh7"><use xlink:href="#hj5NhAoIS" id="el_S1Z7OHZS827"/><g id="el_B1GQuSWBInm"><use xlink:href="#hj5NhAoIS" id="el_rk7XdB-BUhm"/></g></g></g><g id="el_HkNmdr-B83Q"><use xlink:href="#b7TPTM8ifZ" id="el_SJrmdHZS8hm"/><g id="el_B1UQdBbBUhQ"><use xlink:href="#b7TPTM8ifZ" id="el_rJwXdSbB8hQ"/></g></g><g id="el_H1_muHbBUnX_S1D45LInX" data-animator-group="true" data-animator-type="1"><g id="el_H1_muHbBUnX"><use xlink:href="#b2sdEaGiLx" id="el_ryY7dBbSLn7"/><g id="el_B15QuH-HUh7"><use xlink:href="#b2sdEaGiLx" id="el_B1im_HbHL3m"/></g></g></g></g></svg>